<?xml version="1.0" standalone="no"?>
<!DOCTYPE svg PUBLIC "-//W3C//DTD SVG 20010904//EN"
 "http://www.w3.org/TR/2001/REC-SVG-20010904/DTD/svg10.dtd">
<svg version="1.0" xmlns="http://www.w3.org/2000/svg"
 width="512.000000pt" height="512.000000pt" viewBox="0 0 512.000000 512.000000"
 preserveAspectRatio="xMidYMid meet">
<metadata>
Created by potrace 1.14, written by Peter Selinger 2001-2017
</metadata>
<g transform="translate(0.000000,512.000000) scale(0.100000,-0.100000)"
fill="#000000" stroke="none">
<path d="M933 5100 c-81 -39 -100 -90 -98 -271 l1 -127 -105 -4 c-147 -5 -176
-21 -297 -163 -108 -128 -95 -118 -144 -105 -113 30 -224 -21 -271 -125 -17
-38 -18 -126 -18 -1700 0 -1648 0 -1660 20 -1720 32 -94 97 -171 180 -213 24
-12 483 -168 1020 -347 l976 -325 365 0 c344 0 368 1 424 21 32 11 64 22 69
23 6 2 17 6 25 9 15 6 691 230 700 232 3 1 12 4 20 8 18 7 692 230 703 233 4
1 8 2 10 3 1 1 89 30 196 66 107 36 215 79 240 95 60 38 110 98 141 169 l25
56 0 1685 c0 1589 -1 1687 -18 1717 -43 80 -130 128 -216 120 -31 -3 -65 -9
-76 -12 -17 -5 -34 9 -90 76 -150 177 -193 202 -346 198 l-84 -2 -1 144 c-1
150 -7 177 -45 220 -53 59 -122 68 -279 39 -524 -97 -1054 -425 -1360 -844
-38 -53 -44 -57 -53 -40 -11 20 -92 127 -117 154 -47 52 -162 169 -190 194
-341 302 -814 519 -1200 551 -52 4 -73 1 -107 -15z"/>
</g>
</svg>
